#!OML:ASF F:\VICON\USERDATA\INSTALL\rory3\rory3.ASF
:FULLY-SPECIFIED
:DEGREES
1
root 4.5168 17.6862 1.74942 23.3827 1.24471 -4.83887
lowerback -9.0504 -0.135197 5.06474
upperback -14.0505 0.0667634 5.48613
thorax -10.0551 -0.122698 3.1039
lowerneck -3.39706 19.913 13.2107
upperneck 7.06875 25.5381 2.60493
head 4.33899 13.0373 0.353663
rclavicle 1.39149e-014 -1.43125e-014
rhumerus -10.4137 -24.9134 23.7939
rradius 123.592
rwrist -58.9706
rhand -5.48515 -46.9941
rfingers 7.12502
rthumb 20.3272 -75.9504
lclavicle 1.39149e-014 -1.43125e-014
lhumerus 33.6855 35.3773 -9.76949
lradius 29.527
lwrist 48.5328
lhand -31.4967 -14.5482
lfingers 7.12502
lthumb -4.76278 15.3783
rfemur -7.37449 6.02513 -2.99899
rtibia 1.90833e-014
rfoot -20.6971 -29.0122
rtoes 48.5322
lfemur -22.482 -1.96895 -24.6063
ltibia 14.3264
lfoot -13.1216 9.1108
ltoes 9.37322
2
root 4.50709 17.6865 1.75202 23.3749 1.12646 -4.76036
lowerback -9.07274 -0.154372 4.82564
upperback -14.058 0.043674 5.47215
thorax -10.0458 -0.11128 3.22105
lowerneck -3.37771 19.8844 13.421
upperneck 7.41943 25.4979 2.42008
head 4.04904 13.0262 0.293091
rclavicle -4.73108e-014 7.79236e-014
rhumerus -10.251 -25.0181 23.4452
rradius 123.499
rwrist -58.9936
rhand -5.44255 -47.0388
rfingers 7.12502
rthumb 20.3682 -75.9907
lclavicle -4.73108e-014 7.79236e-014
lhumerus 33.8981 35.3734 -9.63386
lradius 29.4102
lwrist 48.2681
lhand -31.3692 -14.578
lfingers 7.12502
lthumb -4.63964 15.3512
rfemur -7.44643 6.10186 -3.10814
rtibia 1.59028e-014
rfoot -21.592 -28.4463
rtoes 49.0822
lfemur -22.3748 -2.15539 -24.6137
ltibia 14.1155
lfoot -12.9972 9.39203
ltoes 9.05187
3
root 4.50645 17.6877 1.75209 23.3601 1.15606 -4.78321
lowerback -9.0548 -0.164993 4.84589
upperback -14.0746 0.0327286 5.4868
thorax -10.0762 -0.117901 3.22701
lowerneck -3.34535 19.8745 13.4242
upperneck 7.40144 25.4918 2.40007
head 4.04124 13.0222 0.28253
rclavicle 3.27995e-014 -3.02153e-014
rhumerus -10.2351 -25.0043 23.4313
rradius 123.538
rwrist -59.1609
rhand -5.56483 -47.2444
rfingers 7.12502
rthumb 20.2506 -76.2087
lclavicle 3.27995e-014 -3.02153e-014
lhumerus 34.054 35.4216 -9.4092
lradius 29.3403
lwrist 47.9589
lhand -31.4742 -14.7467
lfingers 7.12502
lthumb -4.74102 15.1803
rfemur -7.42061 6.09178 -3.06824
rtibia 5.725e-014
rfoot -23.5521 -27.0108
rtoes 50.5168
lfemur -22.3364 -2.18502 -24.5686
ltibia 14.1017
lfoot -13.0146 9.40587
ltoes 9.05604
4
root 4.50769 17.6892 1.7521 23.3782 1.16184 -4.83295
lowerback -9.10319 -0.157302 4.89627
upperback -14.0695 0.0391481 5.51584
thorax -10.044 -0.117697 3.22974
lowerneck -3.29937 19.8913 13.2768
upperneck 6.9801 25.5312 2.49634
head 4.31505 13.0289 0.298093
rclavicle 7.15625e-015 -4.29375e-014
rhumerus -10.2774 -24.9415 23.5822
rradius 123.565
rwrist -59.1669
rhand -5.78813 -47.2963
rfingers 7.12502
rthumb 20.036 -76.2833
lclavicle 7.15625e-015 -4.29375e-014
lhumerus 33.9612 35.4245 -9.44869
lradius 29.3841
lwrist 47.9532
lhand -31.4578 -14.6945
lfingers 7.12502
lthumb -4.72522 15.2328
rfemur -7.44679 6.09777 -3.02156
rtibia 9.54166e-015
rfoot -23.6607 -26.973
rtoes 50.6453
lfemur -22.2927 -2.18124 -24.5171
ltibia 13.9837
lfoot -12.9575 9.41911
ltoes 9.19913
5
root 4.50975 17.6875 1.75848 23.2083 1.36713 -4.65586
lowerback -9.1178 -0.247161 4.83446
upperback -13.9853 -0.0896789 5.46844
thorax -9.93038 -0.178256 3.20654
lowerneck -3.20299 19.8539 13.4678
upperneck 7.1441 25.5089 2.16309
head 3.97504 13.0143 0.18769
rclavicle -1.55052e-014 7.95139e-015
rhumerus -10.3349 -24.9672 23.6814
rradius 123.549
rwrist -59.2126
rhand -6.01509 -47.3059
rfingers 7.12502
rthumb 19.8179 -76.3156
lclavicle -1.55052e-014 7.95139e-015
lhumerus 33.8682 35.4122 -9.57039
lradius 29.4222
lwrist 48.0346
lhand -31.3544 -14.7126
lfingers 7.12502
lthumb -4.62531 15.2169
rfemur -7.11202 5.9263 -3.08747
rtibia -6.36111e-015
rfoot -22.4282 -27.9841
rtoes 49.7605
lfemur -22.0481 -2.20464 -24.6838
ltibia 13.9103
lfoot -12.9862 9.19578
ltoes 9.23422
6
root 4.51343 17.6836 1.76699 22.8822 1.83725 -4.42153
lowerback -8.94579 -0.427042 4.86875
upperback -13.9527 -0.322889 5.39054
thorax -9.98499 -0.302904 3.10303
lowerneck -3.20213 19.7741 13.6865
upperneck 7.22307 25.4028 1.96657
head 4.04718 12.9619 0.116254
rclavicle -1.98785e-015 0
rhumerus -10.3445 -24.9384 23.7199
rradius 123.553
rwrist -59.3645
rhand -6.0091 -47.3844
rfingers 7.12502
rthumb 19.8236 -76.3935
lclavicle -1.98785e-015 0
lhumerus 33.9525 35.3226 -9.52395
lradius 29.3711
lwrist 47.862
lhand -31.3291 -14.8475
lfingers 7.12502
lthumb -4.60089 15.0826
rfemur -6.44857 5.57501 -3.06999
rtibia 0
rfoot -21.5936 -28.5964
rtoes 49.1249
lfemur -21.5914 -2.27201 -24.8596
ltibia 13.8165
lfoot -13.0727 8.75908
ltoes 9.16212
7
root 4.51268 17.6839 1.7663 22.677 2.12695 -4.42434
lowerback -8.74104 -0.526724 4.97983
upperback -13.9662 -0.439313 5.39333
thorax -10.12 -0.372074 3.04988
lowerneck -3.04945 19.7714 13.753
upperneck 7.22316 25.4189 1.97523
head 4.03168 12.9725 0.0985905
rclavicle -3.37934e-015 3.18055e-015
rhumerus -10.3606 -24.8193 23.7468
rradius 123.594
rwrist -59.4076
rhand -6.07637 -47.4798
rfingers 7.12502
rthumb 19.7589 -76.4955
lclavicle -3.37934e-015 3.18055e-015
lhumerus 34.1226 35.3777 -9.32488
lradius 29.2765
lwrist 47.563
lhand -31.1501 -14.9227
lfingers 7.12502
lthumb -4.42809 15.011
rfemur -6.07775 5.41591 -2.89577
rtibia 2.22639e-014
rfoot -22.3525 -27.9863
rtoes 49.6774
lfemur -21.3176 -2.3249 -24.7803
ltibia 13.7205
lfoot -13.0755 8.54569
ltoes 9.03975
